<?xml version="1.0" encoding="UTF-8" standalone="no"?>
<svg
   xmlns:dc="http://purl.org/dc/elements/1.1/"
   xmlns:cc="http://creativecommons.org/ns#"
   xmlns:rdf="http://www.w3.org/1999/02/22-rdf-syntax-ns#"
   xmlns:svg="http://www.w3.org/2000/svg"
   xmlns="http://www.w3.org/2000/svg"
   viewBox="0 0 1008.4933 442.77332"
   height="442.77332"
   width="1008.4933"
   xml:space="preserve"
   id="svg2"
   version="1.1"><metadata
     id="metadata8"><rdf:RDF><cc:Work
         rdf:about=""><dc:format>image/svg+xml</dc:format><dc:type
           rdf:resource="http://purl.org/dc/dcmitype/StillImage" /></cc:Work></rdf:RDF></metadata><defs
     id="defs6" /><g
     transform="matrix(1.3333333,0,0,-1.3333333,0,442.77333)"
     id="g10"><g
       transform="scale(0.1)"
       id="g12"><path
         id="path14"
         style="fill:#231f20;fill-opacity:1;fill-rule:nonzero;stroke:none"
         d="m 6662.32,1029.22 -623.69,-0.16 v 414.29 h 623.69 c 110.34,0 199.71,-89.37 199.71,-207.07 0,-117.86 -89.37,-207.06 -199.71,-207.06 z m -623.69,1294.19 h 509.9 c 117.39,0 212.38,-92.65 212.38,-199.24 0,-106.74 -94.99,-199.56 -212.38,-199.56 h -509.9 z M 5397.23,524.309 h 1459.79 c 390.33,0 706.65,235.242 706.65,611.961 0,293.93 -192.36,488.95 -462.02,574.71 0,0 -11.12,2.66 -26.15,3.28 15.03,1.42 26.15,4.54 26.15,4.54 154.47,61.21 325.54,223.98 325.54,501.16 0,351.52 -310.99,575.8 -694.91,575.8 H 5397.23 Z M 4927.71,0.0117188 h 141.17 V 3320.77 h -141.17 z m -2559.78,0 H 2509.1 V 3320.77 H 2367.93 Z M 4655.69,2795.76 H 2838.32 V 524.309 H 4689.03 V 1047.99 H 3476.54 v 365.93 h 835.29 v 501.15 h -835.29 v 361.69 H 4655.69 Z M 2057.18,2474.28 1649.47,2169.87 c -192.51,165.58 -440.58,198.14 -577.53,198.14 -138.506,0 -282.885,-39.59 -305.268,-138.98 -21.68,-96.41 67.848,-171.38 221.855,-213.17 175.603,-47.42 335.483,-89.2 581.743,-159.49 366.24,-104.54 616.66,-262.93 616.66,-630.42 0,-506.47 -449.5,-768.93 -1051.76,-768.93 C 533,457.02 122.629,770.832 0,917.148 L 430.949,1239.41 C 733.727,975.531 944.23,938.289 1120.15,938.289 c 201.9,0 390.65,43.352 414.92,156.811 19.71,91.73 -56.36,164.66 -228.35,204.57 -194.56,44.92 -358.814,81.08 -542.005,129.27 -496.692,130.38 -636.766,419.14 -636.766,678.48 0,357.17 332.508,724.02 940.551,724.02 623.54,0 988.68,-357.16 988.68,-357.16" /></g></g></svg>